HIERARCHY
ROOT Root
{
  OFFSET 0.0 0.0 0.0
  CHANNELS 6 Xposition Yposition Zposition Zrotation Yrotation Xrotation
  JOINT Hips
  {
    OFFSET 0.0 100.0 0.0
    CHANNELS 6 Xposition Yposition Zposition Zrotation Yrotation Xrotation
    JOINT Spine1
    {
      OFFSET 5.003913 -0.037094 -0.013727
      CHANNELS 3 Zrotation Yrotation Xrotation
      JOINT Spine2
      {
        OFFSET 7.125363 -1e-06 0.0
        CHANNELS 3 Zrotation Yrotation Xrotation
        JOINT Chest
        {
          OFFSET 7.594027 1e-06 0.0
          CHANNELS 3 Zrotation Yrotation Xrotation
          JOINT Neck1
          {
            OFFSET 26.313086 -0.460272 -0.181672
            CHANNELS 3 Zrotation Yrotation Xrotation
            JOINT Neck2
            {
              OFFSET 8.045911 0.0 0.0
              CHANNELS 3 Zrotation Yrotation Xrotation
              JOINT Head
              {
                OFFSET 6.432774 0.0 0.0
                CHANNELS 3 Zrotation Yrotation Xrotation
                JOINT HeadEnd
                {
                  OFFSET 16.169773 0.06451 0.00362
                  CHANNELS 3 Zrotation Yrotation Xrotation
                }
                JOINT Jaw
                {
                  OFFSET 0.108741 3.12938 0.002639
                  CHANNELS 3 Zrotation Yrotation Xrotation
                }
                JOINT LeftEye
                {
                  OFFSET 4.45173 8.166359 3.206392
                  CHANNELS 3 Zrotation Yrotation Xrotation
                }
                JOINT RightEye
                {
                  OFFSET 4.436895 8.135758 -3.222429
                  CHANNELS 3 Zrotation Yrotation Xrotation
                }
              }
            }
          }
          JOINT LeftShoulder
          {
            OFFSET 23.218927 5.195579 1.621656
            CHANNELS 3 Zrotation Yrotation Xrotation
            JOINT LeftArm
            {
              OFFSET 15.902118 2e-06 -2e-06
              CHANNELS 3 Zrotation Yrotation Xrotation
              JOINT LeftForeArm
              {
                OFFSET 28.739307 0.0 -1e-06
                CHANNELS 3 Zrotation Yrotation Xrotation
                JOINT LeftHand
                {
                  OFFSET 27.093981 -4e-06 0.0
                  CHANNELS 3 Zrotation Yrotation Xrotation
                  JOINT LeftHandThumb1
                  {
                    OFFSET 2.276781 3.380274 0.83384
                    CHANNELS 3 Zrotation Yrotation Xrotation
                    JOINT LeftHandThumb2
                    {
                      OFFSET 4.705309 -1e-06 -1e-06
                      CHANNELS 3 Zrotation Yrotation Xrotation
                      JOINT LeftHandThumb3
                      {
                        OFFSET 2.798515 0.0 3e-06
                        CHANNELS 3 Zrotation Yrotation Xrotation
                        JOINT LeftHandThumbEnd
                        {
                          OFFSET 3.180793 4e-06 -4e-06
                          CHANNELS 3 Zrotation Yrotation Xrotation
                        }
                      }
                    }
                  }
                  JOINT LeftHandIndex1
                  {
                    OFFSET 3.247786 2.352677 0.137192
                    CHANNELS 3 Zrotation Yrotation Xrotation
                    JOINT LeftHandIndex2
                    {
                      OFFSET 6.367095 1e-06 0.0
                      CHANNELS 3 Zrotation Yrotation Xrotation
                      JOINT LeftHandIndex3
                      {
                        OFFSET 3.662364 0.0 0.0
                        CHANNELS 3 Zrotation Yrotation Xrotation
                        JOINT LeftHandIndex4
                        {
                          OFFSET 2.329242 4e-06 -4e-06
                          CHANNELS 3 Zrotation Yrotation Xrotation
                          JOINT LeftHandIndexEnd
                          {
                            OFFSET 2.767823 1e-06 0.0
                            CHANNELS 3 Zrotation Yrotation Xrotation
                          }
                        }
                      }
                    }
                  }
                  JOINT LeftHandMiddle1
                  {
                    OFFSET 3.163612 0.945023 -0.406112
                    CHANNELS 3 Zrotation Yrotation Xrotation
                    JOINT LeftHandMiddle2
                    {
                      OFFSET 6.276789 3e-06 0.0
                      CHANNELS 3 Zrotation Yrotation Xrotation
                      JOINT LeftHandMiddle3
                      {
                        OFFSET 4.35652 -1e-06 4e-06
                        CHANNELS 3 Zrotation Yrotation Xrotation
                        JOINT LeftHandMiddle4
                        {
                          OFFSET 2.996877 0.0 8e-06
                          CHANNELS 3 Zrotation Yrotation Xrotation
                          JOINT LeftHandMiddleEnd
                          {
                            OFFSET 2.323256 3e-06 -4e-06
                            CHANNELS 3 Zrotation Yrotation Xrotation
                          }
                        }
                      }
                    }
                  }
                  JOINT LeftHandRing1
                  {
                    OFFSET 2.882606 -0.309162 0.107445
                    CHANNELS 3 Zrotation Yrotation Xrotation
                    JOINT LeftHandRing2
                    {
                      OFFSET 6.033198 0.0 4e-06
                      CHANNELS 3 Zrotation Yrotation Xrotation
                      JOINT LeftHandRing3
                      {
                        OFFSET 4.350578 3e-06 0.0
                        CHANNELS 3 Zrotation Yrotation Xrotation
                        JOINT LeftHandRing4
                        {
                          OFFSET 2.651321 2e-06 -7e-06
                          CHANNELS 3 Zrotation Yrotation Xrotation
                          JOINT LeftHandRingEnd
                          {
                            OFFSET 1.937663 1e-06 -4e-06
                            CHANNELS 3 Zrotation Yrotation Xrotation
                          }
                        }
                      }
                    }
                  }
                  JOINT LeftHandPinky1
                  {
                    OFFSET 2.865315 -1.525436 0.575687
                    CHANNELS 3 Zrotation Yrotation Xrotation
                    JOINT LeftHandPinky2
                    {
                      OFFSET 5.54936 1e-06 -8e-06
                      CHANNELS 3 Zrotation Yrotation Xrotation
                      JOINT LeftHandPinky3
                      {
                        OFFSET 3.070974 0.0 -4e-06
                        CHANNELS 3 Zrotation Yrotation Xrotation
                        JOINT LeftHandPinky4
                        {
                          OFFSET 1.549672 1e-06 0.0
                          CHANNELS 3 Zrotation Yrotation Xrotation
                          JOINT LeftHandPinkyEnd
                          {
                            OFFSET 1.952123 0.0 0.0
                            CHANNELS 3 Zrotation Yrotation Xrotation
                          }
                        }
                      }
                    }
                  }
                }
              }
            }
          }
          JOINT RightShoulder
          {
            OFFSET 23.161716 5.296122 -1.380114
            CHANNELS 3 Zrotation Yrotation Xrotation
            JOINT RightArm
            {
              OFFSET -16.027195 -2e-06 1.1e-05
              CHANNELS 3 Zrotation Yrotation Xrotation
              JOINT RightForeArm
              {
                OFFSET -28.736639 4e-06 2e-06
                CHANNELS 3 Zrotation Yrotation Xrotation
                JOINT RightHand
                {
                  OFFSET -27.133619 6e-06 0.0
                  CHANNELS 3 Zrotation Yrotation Xrotation
                  JOINT RightHandThumb1
                  {
                    OFFSET -2.274328 -3.351035 -0.83067
                    CHANNELS 3 Zrotation Yrotation Xrotation
                    JOINT RightHandThumb2
                    {
                      OFFSET -4.703594 -3e-06 2e-06
                      CHANNELS 3 Zrotation Yrotation Xrotation
                      JOINT RightHandThumb3
                      {
                        OFFSET -2.794935 -4e-06 -3e-06
                        CHANNELS 3 Zrotation Yrotation Xrotation
                        JOINT RightHandThumbEnd
                        {
                          OFFSET -3.183852 4e-06 1e-06
                          CHANNELS 3 Zrotation Yrotation Xrotation
                        }
                      }
                    }
                  }
                  JOINT RightHandIndex1
                  {
                    OFFSET -3.253496 -2.33755 -0.127667
                    CHANNELS 3 Zrotation Yrotation Xrotation
                    JOINT RightHandIndex2
                    {
                      OFFSET -6.344434 0.0 0.0
                      CHANNELS 3 Zrotation Yrotation Xrotation
                      JOINT RightHandIndex3
                      {
                        OFFSET -3.654871 0.0 -8e-06
                        CHANNELS 3 Zrotation Yrotation Xrotation
                        JOINT RightHandIndex4
                        {
                          OFFSET -2.327586 -1e-06 0.0
                          CHANNELS 3 Zrotation Yrotation Xrotation
                          JOINT RightHandIndexEnd
                          {
                            OFFSET -2.770001 3e-06 8e-06
                            CHANNELS 3 Zrotation Yrotation Xrotation
                          }
                        }
                      }
                    }
                  }
                  JOINT RightHandMiddle1
                  {
                    OFFSET -3.168223 -0.944764 0.411762
                    CHANNELS 3 Zrotation Yrotation Xrotation
                    JOINT RightHandMiddle2
                    {
                      OFFSET -6.266691 -1e-06 -4e-06
                      CHANNELS 3 Zrotation Yrotation Xrotation
                      JOINT RightHandMiddle3
                      {
                        OFFSET -4.348901 0.0 0.0
                        CHANNELS 3 Zrotation Yrotation Xrotation
                        JOINT RightHandMiddle4
                        {
                          OFFSET -3.00024 2e-06 -4e-06
                          CHANNELS 3 Zrotation Yrotation Xrotation
                          JOINT RightHandMiddleEnd
                          {
                            OFFSET -2.321477 -4e-06 -4e-06
                            CHANNELS 3 Zrotation Yrotation Xrotation
                          }
                        }
                      }
                    }
                  }
                  JOINT RightHandRing1
                  {
                    OFFSET -2.885654 0.293261 -0.119232
                    CHANNELS 3 Zrotation Yrotation Xrotation
                    JOINT RightHandRing2
                    {
                      OFFSET -6.032835 -1e-06 -4e-06
                      CHANNELS 3 Zrotation Yrotation Xrotation
                      JOINT RightHandRing3
                      {
                        OFFSET -4.33881 0.0 -4e-06
                        CHANNELS 3 Zrotation Yrotation Xrotation
                        JOINT RightHandRing4
                        {
                          OFFSET -2.654903 -4e-06 -4e-06
                          CHANNELS 3 Zrotation Yrotation Xrotation
                          JOINT RightHandRingEnd
                          {
                            OFFSET -1.935122 0.0 4e-06
                            CHANNELS 3 Zrotation Yrotation Xrotation
                          }
                        }
                      }
                    }
                  }
                  JOINT RightHandPinky1
                  {
                    OFFSET -2.866241 1.503904 -0.60527
                    CHANNELS 3 Zrotation Yrotation Xrotation
                    JOINT RightHandPinky2
                    {
                      OFFSET -5.553177 -2e-06 0.0
                      CHANNELS 3 Zrotation Yrotation Xrotation
                      JOINT RightHandPinky3
                      {
                        OFFSET -3.062664 -1e-06 -4e-06
                        CHANNELS 3 Zrotation Yrotation Xrotation
                        JOINT RightHandPinky4
                        {
                          OFFSET -1.546529 2e-06 4e-06
                          CHANNELS 3 Zrotation Yrotation Xrotation
                          JOINT RightHandPinkyEnd
                          {
                            OFFSET -1.952341 0.0 -4e-06
                            CHANNELS 3 Zrotation Yrotation Xrotation
                          }
                        }
                      }
                    }
                  }
                }
              }
            }
          }
        }
      }
    }
    JOINT LeftLeg
    {
      OFFSET -8.443107 2.567604 10.043214
      CHANNELS 3 Zrotation Yrotation Xrotation
      JOINT LeftShin
      {
        OFFSET 43.229198 1e-06 -1e-06
        CHANNELS 3 Zrotation Yrotation Xrotation
        JOINT LeftFoot
        {
          OFFSET 42.298611 1e-06 1e-06
          CHANNELS 3 Zrotation Yrotation Xrotation
          JOINT LeftToeBase
          {
            OFFSET 14.165858 1e-06 0.0
            CHANNELS 3 Zrotation Yrotation Xrotation
            JOINT LeftToeEnd
            {
              OFFSET 6.7141 -0.234461 0.0
              CHANNELS 3 Zrotation Yrotation Xrotation
            }
          }
        }
      }
    }
    JOINT RightLeg
    {
      OFFSET -8.303923 2.592729 -10.047278
      CHANNELS 3 Zrotation Yrotation Xrotation
      JOINT RightShin
      {
        OFFSET -43.369682 0.0 1e-06
        CHANNELS 3 Zrotation Yrotation Xrotation
        JOINT RightFoot
        {
          OFFSET -42.260784 4e-06 2e-06
          CHANNELS 3 Zrotation Yrotation Xrotation
          JOINT RightToeBase
          {
            OFFSET -14.222245 -2e-06 -1e-06
            CHANNELS 3 Zrotation Yrotation Xrotation
            JOINT RightToeEnd
            {
              OFFSET -6.660062 0.232574 -2e-06
              CHANNELS 3 Zrotation Yrotation Xrotation
            }
          }
        }
      }
    }
  }
}
MOTION
Frames: 4
Frame Time: 0.03333333333333333
0.0 0.0 0.0 0.0 -0.0 0.0 -16.771122 96.054977 245.235611 90.670753 1.41217 91.129868 -1.333205 0.220128 -0.581049 -11.570555 -0.683566 -1.176243 16.906895 -1.523162 -4.023131 22.199812 2.126331 2.296262 -2.622442 -0.708171 -1.092462 -35.435577 -2.842225 -0.475648 6e-06 -0.0 -0.0 0.016362 0.005686 -0.062572 -0.003396 -0.030202 -0.078338 0.030053 0.03418 -0.037164 -110.726257 -70.975784 128.392075 22.978081 -10.428122 15.905887 64.025848 0.193392 -1.032702 -3.35115 0.861626 -7.714659 17.63662 -26.322725 52.411194 -19.466663 -14.395598 29.410393 -0.0 -8.774821 -1e-06 15.328504 -18.262114 6.596763 -0.609775 -1.795652 -3.889326 -4.807088 -11.046806 -2.937853 5e-06 -20.976015 -0.0 -5.019969 -25.033552 -4.03188 6e-06 0.0 1e-06 -10.634533 -5.686973 -3.565586 10.573276 -17.922947 -3.113906 5e-06 -13.821205 -2e-06 -0.501774 -31.181498 -4.027016 -11.334263 -59.497299 7.594741 -13.982711 -7.150196 -2.875043 13.772724 -8.401492 -3.218246 0.347736 -34.21154 0.771653 -0.963027 -17.733366 2.621019 -2e-06 1e-06 -1e-06 -17.346413 -20.095213 -4.201785 21.757555 -1.638377 3.866428 1e-06 -6.338824 -1e-06 -1.697587 -22.591738 -6.194005 0.0 -4e-06 -2e-06 63.028862 -66.936737 134.711594 14.75802 -12.748425 6.339998 57.597977 -1.66454 1.106765 -5.53526 -0.722069 -12.331346 22.182116 -20.375891 49.933319 -16.701813 -16.743525 28.47653 -4e-06 -12.690601 -2e-06 15.6318 -17.404936 2.755938 -0.10592 -1.513854 -4.27588 -5.039041 -5.612872 -2.953558 4e-06 -11.020525 -3e-06 -6.111295 -15.89533 -3.840472 0.0 -0.0 -1e-06 -10.283365 -5.680286 -4.341839 11.02829 -11.302408 -2.372634 -1.384266 -14.238579 -6.32012 -0.625438 -26.924187 -3.8276 -3.984656 -48.972755 -3.750899 -13.708522 -7.363476 -3.720939 18.141146 -14.052738 -3.242674 5e-06 -18.78727 -0.0 -0.429711 -8.456043 2.555503 -0.0 -0.0 2e-06 -15.923532 -20.094482 -5.473584 30.419205 -7.190827 1.735925 2e-06 -8.162922 -1e-06 -1.861897 -22.861467 -6.167941 2e-06 -3e-06 -2e-06 -162.886551 -1.849408 -4.288807 7.4593 -0.075336 0.291989 -90.878868 0.52604 -5.404301 -7.0961 1.279685 2.081955 -0.999999 -0.0 0.0 -20.889229 -7.182813 -10.561512 6.88306 0.060171 -0.249377 -59.94286 -6.749251 -12.429287 -9.62173 0.988074 1.581488 -1.000002 1e-06 0.0 
0.0 0.0 0.0 0.0 -0.0 0.0 -17.841599 96.057632 247.647354 89.307922 1.028321 91.281029 -1.526896 0.948483 -0.671914 -11.727406 -0.558704 -1.271922 16.927876 -0.612729 -4.05202 21.854441 1.944826 2.454475 -2.671177 -0.693654 -1.126028 -35.117256 -2.676763 -0.251105 7e-06 0.0 -0.0 -0.018061 -0.010331 -0.117697 0.00488 -0.050789 -0.122297 0.048141 0.023331 -0.103975 -112.072548 -70.659302 129.647766 22.529682 -10.610346 16.127346 63.544113 0.319746 -0.897312 -3.416784 1.171497 -8.071224 17.63662 -26.322721 52.411198 -19.466665 -14.395597 29.410393 -1e-06 -8.774821 -0.0 15.303744 -18.095211 6.655003 -0.609775 -1.795652 -3.889329 -4.80709 -11.04681 -2.93785 6e-06 -20.976015 -3e-06 -5.019968 -25.033556 -4.031882 5e-06 -0.0 1e-06 -10.634531 -5.686967 -3.565586 10.573274 -17.922947 -3.113902 5e-06 -13.821203 -0.0 -0.501774 -31.181498 -4.027016 -11.4022 -59.534557 7.820146 -13.982711 -7.150194 -2.875042 13.772727 -8.401489 -3.218242 0.34774 -34.211536 0.771651 -0.963029 -17.733362 2.621019 -1e-06 -1e-06 1e-06 -17.346409 -20.095205 -4.201784 21.757553 -1.638375 3.866426 1e-06 -6.338823 -0.0 -1.697587 -22.591738 -6.194003 1e-06 -4e-06 -4e-06 61.96537 -67.301758 135.719131 15.201079 -12.166061 6.07181 57.113972 -1.497879 0.998971 -5.416702 -0.399643 -12.811762 22.182108 -20.375891 49.933315 -16.701817 -16.743528 28.47653 -4e-06 -12.6906 -1e-06 15.681501 -17.487581 2.772553 -0.105922 -1.513858 -4.275882 -5.039036 -5.612866 -2.953555 5e-06 -11.020525 -1e-06 -6.111297 -15.895332 -3.840469 -0.0 -1e-06 -2e-06 -10.283371 -5.68029 -4.341838 11.028292 -11.302404 -2.372633 -1.384268 -14.23858 -6.320121 -0.625437 -26.924191 -3.8276 -3.811396 -49.098812 -3.920982 -13.708524 -7.363479 -3.720939 18.14115 -14.052739 -3.242675 7e-06 -18.78727 -3e-06 -0.429713 -8.456045 2.555505 0.0 1e-06 -2e-06 -15.923532 -20.094482 -5.473585 30.419207 -7.190826 1.735924 1e-06 -8.162925 0.0 -1.861899 -22.861467 -6.167942 3e-06 -2e-06 -2e-06 -162.691589 -4.120726 -5.111475 9.233865 -0.14309 0.369516 -90.362122 1.334045 -6.359861 -8.483593 1.311009 2.074711 -0.999998 -0.0 0.0 -21.820114 -5.513618 -10.44045 10.400018 -0.009781 -0.224443 -57.58971 -6.801232 -11.793081 -9.210341 0.888795 1.569205 -1.000002 -1e-06 0.0 
0.0 0.0 0.0 0.0 -0.0 0.0 -19.043657 96.365593 250.046402 88.390594 1.044945 91.403717 -1.467377 1.231939 -0.696444 -11.776836 -0.490011 -1.529884 16.763842 0.161064 -3.924234 21.835014 1.942759 2.427336 -2.626061 -0.814415 -0.870556 -35.066296 -2.442403 -0.157127 6e-06 -0.0 0.0 -0.016894 -0.011515 -0.114835 0.051044 -0.041615 -0.114888 0.091561 0.013812 -0.102742 -111.407669 -70.684494 129.006302 22.247925 -11.485866 16.355099 63.081352 0.29097 -0.841851 -3.700504 1.549585 -8.447762 17.636637 -26.322733 52.41119 -19.466661 -14.395596 29.410389 1e-06 -8.774821 -5e-06 15.374544 -18.082928 6.574513 -0.609777 -1.795653 -3.889329 -4.80709 -11.046808 -2.93785 5e-06 -20.976015 1e-06 -5.01997 -25.033554 -4.031878 6e-06 -0.0 0.0 -10.634533 -5.686972 -3.565588 10.573274 -17.922947 -3.113898 3e-06 -13.821206 2e-06 -0.501777 -31.181505 -4.027014 -11.121207 -59.284882 7.580072 -13.982715 -7.150198 -2.87504 13.77273 -8.401487 -3.218243 0.347735 -34.211544 0.771657 -0.963028 -17.733368 2.621018 -1e-06 0.0 1e-06 -17.346416 -20.095215 -4.201782 21.757557 -1.638381 3.866432 2e-06 -6.338823 0.0 -1.697587 -22.591742 -6.194005 0.0 -4e-06 -2e-06 62.174351 -67.950882 135.51825 15.978209 -12.332409 5.947894 56.436722 -1.516492 0.751496 -5.397811 0.470287 -13.136698 22.182119 -20.375895 49.933323 -16.701811 -16.74353 28.476528 -2e-06 -12.690603 -1e-06 15.752339 -17.575531 2.826277 -0.105919 -1.513855 -4.275882 -5.039042 -5.61287 -2.953557 5e-06 -11.020528 -2e-06 -6.111298 -15.895332 -3.840471 1e-06 -1e-06 -2e-06 -10.283371 -5.680285 -4.341839 11.028295 -11.302404 -2.37263 -1.384268 -14.238579 -6.320121 -0.62544 -26.924191 -3.827602 -3.899177 -49.279232 -3.762922 -13.708524 -7.363475 -3.72094 18.141148 -14.05274 -3.242672 5e-06 -18.78727 -0.0 -0.429711 -8.456043 2.555503 -0.0 0.0 1e-06 -15.923536 -20.094482 -5.473586 30.419218 -7.190827 1.735925 1e-06 -8.162927 1e-06 -1.861903 -22.861467 -6.167939 1e-06 -2e-06 -2e-06 -162.509781 -6.099015 -5.662352 11.942433 -0.239173 0.511132 -87.604355 2.472139 -7.066926 -11.042789 1.538542 2.072279 -1.0 0.0 -0.0 -22.368128 -4.302822 -10.817225 14.908074 0.051813 -0.181922 -59.57375 -7.251126 -10.981648 -8.417461 0.842515 1.573381 -1.000001 1e-06 -0.0 
0.0 0.0 0.0 0.0 -0.0 0.0 -20.327269 96.818649 252.55661 87.86441 1.189409 91.788658 -1.45349 1.38449 -0.730263 -11.764986 -0.513877 -1.509167 16.482319 0.479564 -3.967122 21.965397 2.184995 2.446402 -2.590119 -0.766253 -0.906951 -34.92556 -2.291298 -0.152169 5e-06 0.0 0.0 -0.00974 -0.026779 -0.129878 0.048803 -0.049969 -0.143374 0.087001 -0.00483 -0.105335 -109.664215 -71.107986 127.219009 21.993927 -12.425405 17.187508 62.852829 0.505747 -0.849844 -4.04971 1.657566 -8.079549 17.636627 -26.322737 52.411201 -19.466663 -14.395598 29.410393 2e-06 -8.774821 -3e-06 15.370934 -17.932144 6.478529 -0.609775 -1.795651 -3.889326 -4.80709 -11.046815 -2.93785 5e-06 -20.976021 -1e-06 -5.019973 -25.033562 -4.031879 6e-06 0.0 -1e-06 -10.634532 -5.686969 -3.565587 10.573274 -17.922955 -3.113902 3e-06 -13.821209 1e-06 -0.501778 -31.181507 -4.027015 -11.053934 -58.949841 7.50965 -13.982715 -7.150199 -2.875042 13.772728 -8.40149 -3.218244 0.347731 -34.211555 0.771655 -0.963029 -17.733372 2.62102 1e-06 -1e-06 2e-06 -17.346418 -20.095219 -4.201778 21.757557 -1.638374 3.866428 0.0 -6.338825 -1e-06 -1.697588 -22.591743 -6.194006 1e-06 -4e-06 -5e-06 62.688057 -68.372269 134.889297 16.727201 -12.97808 5.982876 56.101303 -1.566601 0.640267 -5.429689 1.000031 -13.294662 22.182108 -20.375896 49.933327 -16.701817 -16.74353 28.476536 -3e-06 -12.690603 0.0 15.664071 -17.53161 2.82986 -0.10592 -1.513856 -4.275882 -5.039041 -5.612871 -2.953557 4e-06 -11.020527 -2e-06 -6.111296 -15.895334 -3.840472 -0.0 -1e-06 -1e-06 -10.28337 -5.680287 -4.34184 11.028296 -11.302406 -2.372634 -1.384271 -14.238585 -6.320122 -0.625437 -26.924192 -3.827605 -3.857254 -49.100815 -3.802486 -13.708527 -7.363474 -3.720938 18.141153 -14.052739 -3.242677 5e-06 -18.787271 -2e-06 -0.42971 -8.456043 2.5555 -0.0 0.0 1e-06 -15.923536 -20.094484 -5.473583 30.41921 -7.190825 1.735921 1e-06 -8.162925 0.0 -1.8619 -22.861467 -6.167944 1e-06 -3e-06 0.0 -163.124146 -7.931832 -5.97473 16.149736 -0.384299 0.704993 -83.929428 4.374279 -7.540159 -15.66122 1.747405 2.033247 -1.000001 -0.0 -0.0 -21.541815 -3.194005 -11.217031 17.181911 0.052431 -0.172422 -62.668079 -8.000945 -10.667443 -8.137742 0.801789 1.573957 -1.000002 0.0 0.0 
